<?xml version="1.0" standalone="no"?>
<!DOCTYPE svg PUBLIC "-//W3C//DTD SVG 20010904//EN"
 "http://www.w3.org/TR/2001/REC-SVG-20010904/DTD/svg10.dtd">
<svg version="1.0" xmlns="http://www.w3.org/2000/svg"
 width="1067.000000pt" height="1067.000000pt" viewBox="0 0 1067.000000 1067.000000"
 preserveAspectRatio="xMidYMid meet">
<metadata>
Created by potrace 1.11, written by Peter Selinger 2001-2013
</metadata>
<g transform="translate(0.000000,1067.000000) scale(0.100000,-0.100000)"
fill="#000000" stroke="none">
<path d="M5024 9489 c-3 -6 -20 -9 -36 -7 -16 3 -32 0 -35 -5 -4 -6 -1 -7 7
-2 9 5 11 4 6 -4 -6 -9 -11 -9 -23 0 -23 19 -55 19 -48 0 5 -13 4 -14 -6 -3
-15 14 -33 16 -24 2 3 -6 -1 -7 -9 -4 -9 3 -13 11 -9 18 4 6 -1 5 -10 -3 -9
-7 -15 -17 -12 -20 2 -4 -2 -8 -10 -8 -8 0 -12 3 -10 7 2 4 -2 7 -10 7 -8 0
-12 -4 -10 -8 3 -4 -2 -10 -11 -13 -8 -3 -13 -2 -10 3 3 5 -5 11 -19 13 -13 3
-22 1 -19 -3 8 -13 -10 -11 -25 4 -9 7 -11 7 -8 1 4 -7 0 -15 -9 -18 -12 -5
-15 -2 -10 11 5 16 4 16 -7 3 -15 -18 -37 -24 -37 -9 0 5 -4 8 -10 4 -5 -3 -6
-13 -3 -23 4 -10 -2 -7 -15 8 -18 21 -21 22 -15 5 6 -17 5 -18 -9 -7 -13 10
-18 10 -24 1 -4 -8 -3 -9 4 -5 8 5 10 2 6 -9 -6 -14 -8 -14 -19 1 -11 15 -12
15 -18 1 -4 -10 -13 -14 -22 -11 -8 3 -12 10 -9 15 3 5 -2 6 -10 3 -9 -3 -13
-10 -10 -15 3 -5 -2 -6 -10 -3 -9 3 -16 11 -16 18 0 6 -4 5 -9 -3 -5 -8 -16
-11 -25 -8 -9 4 -15 3 -15 -1 3 -19 -2 -26 -10 -14 -6 11 -13 11 -30 3 -52
-27 -61 -31 -68 -31 -5 0 -1 5 7 10 9 6 10 10 3 10 -6 0 -15 -5 -18 -10 -5 -8
-11 -7 -21 1 -17 14 -19 -2 -1 -21 7 -7 2 -6 -12 3 -15 10 -30 13 -40 8 -9 -5
-24 -7 -34 -5 -13 2 -17 -2 -13 -12 3 -8 2 -13 -3 -9 -5 3 -11 2 -14 -2 -2 -5
-3 -3 -1 3 1 6 -4 11 -12 11 -8 0 -14 -7 -14 -16 0 -14 -2 -14 -9 -2 -8 13
-12 13 -27 0 -10 -8 -15 -9 -12 -3 4 6 -3 10 -18 10 -13 0 -24 -4 -24 -8 0 -4
-9 -8 -20 -8 -11 0 -20 -4 -20 -8 0 -4 -12 -8 -27 -9 -47 -2 -72 -7 -67 -14 2
-4 -3 -10 -12 -13 -8 -3 -13 -2 -10 2 3 5 -2 9 -10 9 -8 0 -13 -6 -10 -14 5
-11 1 -11 -17 -2 -20 11 -21 11 -9 -4 12 -14 11 -15 -18 -7 -26 7 -31 6 -26
-5 4 -11 0 -12 -21 -4 -24 9 -25 8 -12 -7 13 -16 12 -16 -6 -7 -15 9 -22 8
-33 -5 -7 -10 -11 -12 -8 -5 4 7 -1 11 -14 10 -11 -1 -18 -7 -16 -13 3 -9 -3
-10 -26 -4 -26 8 -29 7 -23 -8 5 -13 3 -14 -6 -5 -9 9 -15 8 -28 -6 -9 -9 -13
-12 -8 -5 5 8 0 10 -18 6 -21 -3 -23 -7 -14 -19 10 -11 8 -12 -15 -4 -26 10
-31 6 -27 -24 1 -5 -4 -3 -11 5 -7 8 -19 16 -27 18 -12 3 -12 0 -2 -12 10 -12
9 -14 -10 -9 -16 5 -20 3 -14 -7 5 -8 3 -11 -6 -8 -8 3 -20 -2 -26 -11 -11
-14 -14 -14 -23 -1 -9 13 -14 8 -11 -12 0 -4 -9 -5 -21 -3 -12 3 -27 0 -34 -6
-7 -6 -18 -8 -24 -4 -5 3 -10 1 -10 -5 0 -6 -4 -9 -9 -6 -5 4 -12 0 -14 -6 -4
-10 -6 -10 -6 0 -1 9 -7 8 -25 -4 -14 -8 -27 -15 -30 -15 -20 3 -26 -1 -26
-16 0 -15 -2 -16 -10 -3 -6 10 -10 11 -10 3 0 -7 -7 -13 -15 -13 -8 0 -23 -9
-34 -21 -14 -15 -21 -17 -26 -8 -6 8 -4 10 5 4 9 -6 11 -4 5 5 -6 10 -11 10
-20 -3 -7 -10 -17 -17 -23 -17 -6 0 -13 -6 -15 -12 -4 -9 -6 -8 -7 2 0 10 -6
6 -16 -10 -8 -14 -13 -18 -11 -9 3 9 -1 16 -9 16 -13 0 -18 -10 -16 -28 1 -4
-8 -5 -19 -2 -12 4 -26 -2 -35 -13 -9 -11 -13 -13 -9 -7 4 9 1 11 -9 7 -9 -3
-13 -11 -9 -17 4 -6 0 -8 -10 -4 -12 4 -17 1 -18 -11 0 -9 -3 -12 -5 -6 -6 14
-44 6 -44 -8 0 -5 -6 -6 -12 -2 -10 6 -10 4 0 -8 11 -14 10 -16 -9 -11 -15 4
-20 3 -15 -5 4 -7 2 -12 -3 -12 -6 0 -11 6 -11 13 0 6 -10 1 -21 -13 -11 -14
-18 -18 -14 -10 4 10 2 9 -8 -2 -8 -10 -16 -15 -19 -12 -3 2 -17 -1 -32 -7
-18 -9 -25 -18 -21 -28 3 -8 3 -12 -1 -9 -4 4 -16 3 -27 -3 -15 -9 -18 -8 -11
2 4 7 -6 4 -22 -8 -16 -11 -38 -22 -49 -25 -12 -2 -19 -11 -19 -21 2 -14 -1
-15 -12 -6 -11 9 -18 7 -31 -8 -10 -10 -14 -12 -9 -3 5 8 -3 2 -18 -13 -17
-17 -34 -26 -43 -22 -13 4 -14 3 -4 -9 10 -12 8 -14 -13 -12 -18 2 -26 -2 -26
-11 0 -10 -6 -13 -16 -9 -12 4 -15 2 -10 -9 3 -9 -1 -16 -9 -16 -24 -2 -29 -4
-50 -16 -11 -7 -15 -13 -9 -13 5 0 15 5 22 12 9 9 12 9 12 0 0 -7 -14 -15 -31
-19 -18 -3 -28 -11 -25 -18 2 -7 -3 -12 -12 -12 -35 0 -42 -4 -42 -20 0 -15
-2 -16 -10 -3 -8 13 -10 12 -10 -3 0 -9 -3 -16 -7 -15 -18 5 -53 -14 -47 -24
5 -8 1 -9 -10 -5 -14 5 -17 3 -12 -8 5 -13 -10 -20 -36 -16 -4 0 -5 -5 -2 -13
3 -8 0 -17 -7 -22 -8 -5 -10 -3 -4 6 5 8 -6 4 -23 -8 -17 -13 -35 -28 -39 -35
-4 -7 2 -5 13 3 17 14 18 14 6 -2 -8 -10 -20 -14 -29 -11 -12 5 -15 2 -11 -9
5 -11 0 -14 -19 -12 -18 2 -23 -2 -19 -12 3 -7 2 -13 -2 -13 -18 3 -32 -2 -32
-11 0 -5 8 -7 18 -3 9 3 14 3 11 -1 -10 -11 -50 -16 -44 -5 4 5 1 9 -4 9 -6 0
-11 -7 -11 -16 0 -10 -5 -14 -16 -10 -8 3 -12 2 -9 -4 3 -6 1 -10 -5 -10 -6 0
-9 -4 -5 -9 3 -6 -4 -8 -16 -6 -18 4 -19 2 -7 -12 9 -12 9 -15 0 -9 -7 4 -15
1 -18 -9 -4 -9 -13 -14 -22 -10 -12 4 -13 3 -2 -10 11 -13 10 -14 -5 -9 -11 4
-16 3 -13 -2 4 -5 -1 -18 -9 -29 -15 -19 -15 -19 -9 5 5 23 4 23 -6 -2 -7 -17
-20 -28 -31 -28 -11 0 -15 -4 -11 -12 5 -8 2 -9 -9 -5 -9 3 -16 3 -16 -1 3
-20 -2 -33 -11 -27 -5 3 -10 -1 -10 -9 0 -9 -3 -15 -7 -15 -20 3 -26 -2 -13
-11 12 -8 11 -10 -5 -10 -26 0 -45 -18 -45 -41 0 -10 -4 -21 -10 -24 -6 -4 -7
1 -4 12 5 17 5 17 -9 1 -8 -10 -17 -15 -21 -11 -4 4 -4 0 0 -10 3 -10 1 -17
-6 -17 -6 0 -8 -4 -5 -10 4 -6 -1 -7 -11 -3 -12 4 -15 3 -10 -5 4 -7 1 -12 -9
-12 -11 0 -15 -5 -11 -16 3 -8 2 -13 -3 -9 -12 7 -43 -24 -36 -36 4 -5 -2 -6
-11 -2 -12 4 -15 3 -10 -5 4 -7 1 -12 -9 -12 -11 0 -15 -5 -11 -16 3 -8 2 -13
-3 -10 -5 3 -20 -3 -32 -15 -13 -11 -18 -18 -12 -14 9 4 11 1 7 -10 -5 -12 -9
-13 -20 -4 -12 10 -13 9 -8 -5 3 -9 1 -22 -5 -30 -6 -7 -8 -15 -5 -18 3 -3 -3
-5 -13 -4 -11 0 -17 -5 -15 -13 3 -12 0 -12 -12 -2 -13 11 -15 10 -11 -8 2
-11 -1 -24 -7 -27 -7 -4 -8 -2 -4 4 4 7 2 12 -3 12 -6 0 -11 -7 -11 -16 0 -8
-4 -13 -9 -10 -5 3 -12 -1 -15 -10 -3 -8 -2 -12 3 -9 5 3 13 1 16 -5 4 -6 3
-10 -2 -9 -27 5 -45 -2 -39 -16 3 -10 -1 -15 -12 -16 -10 0 -12 -3 -4 -6 6 -2
12 -9 12 -14 0 -6 -4 -7 -10 -4 -10 6 -72 -48 -70 -62 1 -4 6 -13 11 -20 8 -8
4 -10 -13 -6 -18 4 -20 3 -8 -6 13 -9 12 -11 -3 -11 -10 0 -16 -4 -13 -8 2 -4
1 -14 -5 -22 -7 -13 -9 -13 -9 0 0 8 -7 2 -15 -14 -8 -15 -12 -33 -8 -40 4 -6
-2 -4 -12 4 -10 8 -16 10 -12 3 4 -6 2 -15 -4 -18 -5 -4 -8 -13 -5 -21 3 -8 0
-11 -10 -7 -8 3 -14 -1 -14 -11 0 -9 -6 -16 -12 -16 -9 0 -8 -4 2 -10 13 -9 8
-14 -12 -12 -3 1 -9 -5 -12 -14 -4 -10 -2 -13 7 -8 8 5 8 2 -2 -9 -7 -9 -17
-15 -21 -12 -5 3 -12 0 -16 -6 -4 -7 -3 -9 4 -5 6 3 13 2 17 -4 3 -5 -1 -10
-11 -10 -12 0 -15 -6 -11 -27 5 -25 4 -26 -8 -10 -11 16 -13 16 -19 1 -9 -23
-8 -26 7 -18 6 3 -1 -5 -17 -18 -21 -18 -27 -29 -22 -45 4 -12 2 -24 -3 -28
-7 -4 -8 1 -4 11 4 12 3 15 -6 10 -7 -5 -10 -17 -8 -28 4 -15 3 -17 -8 -8 -12
10 -13 8 -10 -10 3 -15 0 -20 -9 -17 -7 3 -13 -1 -13 -8 0 -7 7 -11 16 -9 9 3
7 0 -5 -6 -35 -19 -80 -108 -48 -96 8 3 14 3 14 0 0 -2 -11 -9 -25 -14 -17 -7
-25 -17 -25 -34 0 -13 -7 -26 -15 -30 -9 -3 -12 -12 -8 -22 4 -12 3 -15 -5
-10 -8 5 -10 1 -5 -10 5 -13 3 -15 -8 -9 -12 8 -12 6 0 -8 12 -15 12 -17 -3
-11 -12 5 -15 2 -10 -10 4 -11 0 -16 -12 -16 -18 -1 -18 -2 1 -17 16 -13 17
-15 3 -10 -19 7 -23 -2 -11 -19 5 -5 4 -6 -2 -1 -18 14 -25 7 -21 -23 3 -26 1
-29 -12 -18 -13 11 -14 11 -8 0 10 -17 15 -61 7 -60 -3 0 -13 0 -21 -1 -12 -1
-12 -3 -2 -9 16 -11 -1 -62 -20 -62 -9 0 -9 -3 0 -12 15 -15 15 -28 1 -28 -5
0 -7 5 -4 10 3 6 1 10 -6 10 -7 0 -9 -10 -7 -25 3 -16 -1 -30 -11 -37 -14 -12
-14 -11 -2 5 8 10 9 17 3 17 -11 0 -35 -70 -27 -79 3 -2 5 1 5 8 0 7 5 9 11 5
8 -4 3 -12 -12 -20 -13 -7 -19 -13 -12 -14 12 0 11 -13 -2 -42 -4 -10 -11 -16
-15 -13 -5 3 -12 1 -15 -5 -4 -6 -3 -9 2 -8 9 3 12 -10 5 -34 -2 -10 -9 -15
-15 -11 -6 3 -7 1 -3 -6 4 -6 12 -9 17 -6 5 4 9 1 9 -4 0 -6 -5 -11 -11 -11
-6 0 -9 -7 -6 -14 4 -10 1 -13 -7 -10 -7 3 -13 -2 -13 -10 0 -8 3 -13 7 -11 4
2 7 -2 7 -10 0 -8 -4 -12 -8 -10 -4 3 -9 -2 -13 -10 -3 -8 0 -15 7 -15 7 0 3
-6 -8 -12 -19 -11 -19 -11 0 -19 18 -7 18 -8 2 -8 -10 -1 -15 -6 -12 -11 4 -6
1 -18 -7 -27 -11 -14 -11 -16 2 -9 13 7 13 6 0 -6 -8 -7 -14 -24 -12 -37 3
-17 0 -21 -10 -15 -10 6 -11 5 -1 -7 10 -12 10 -18 0 -29 -10 -10 -9 -11 3 -5
10 6 9 2 -3 -12 -12 -14 -15 -23 -8 -28 7 -4 8 -13 2 -23 -4 -9 -6 -23 -3 -31
3 -9 0 -11 -8 -6 -8 5 -11 4 -6 -3 3 -6 2 -13 -3 -16 -10 -7 -8 -57 4 -76 5
-9 4 -11 -3 -6 -8 5 -10 2 -6 -8 3 -9 11 -13 17 -9 6 3 7 1 3 -6 -4 -6 -12 -9
-17 -6 -9 6 -13 -15 -10 -44 2 -7 -2 -10 -9 -6 -9 5 -8 1 0 -16 10 -18 10 -24
1 -27 -9 -3 -9 -8 1 -20 8 -9 8 -13 2 -9 -7 4 -15 0 -18 -9 -3 -8 -2 -13 3
-10 5 3 11 -1 14 -9 4 -9 1 -12 -7 -9 -7 3 -13 -2 -13 -11 0 -8 5 -15 11 -15
6 0 4 -5 -4 -10 -13 -9 -13 -10 0 -10 12 0 12 -2 1 -9 -9 -6 -10 -11 -2 -15
14 -9 14 -26 0 -26 -5 0 -7 5 -3 12 4 7 3 8 -4 4 -6 -4 -9 -13 -6 -21 4 -8 11
-12 18 -8 7 4 7 2 -1 -8 -10 -12 -10 -18 0 -29 10 -10 9 -11 -2 -5 -10 6 -13
4 -8 -7 3 -9 0 -21 -6 -27 -9 -9 -8 -11 4 -6 10 4 16 0 16 -9 0 -8 -4 -13 -9
-10 -4 3 -8 -2 -8 -11 0 -10 5 -14 13 -9 9 5 9 4 0 -6 -10 -11 -9 -16 5 -27
16 -12 16 -13 -1 -7 -9 3 -17 1 -17 -5 0 -6 6 -11 13 -11 9 0 8 -3 -2 -9 -9
-6 -10 -11 -2 -15 14 -9 14 -26 0 -26 -5 0 -7 5 -3 12 4 7 3 8 -4 4 -6 -4 -9
-13 -6 -21 4 -8 11 -12 16 -9 6 4 5 -2 -1 -14 -13 -25 -14 -35 -3 -28 5 3 9
-1 9 -9 0 -8 -4 -12 -9 -9 -4 3 -8 -2 -8 -10 0 -9 5 -16 12 -16 6 0 3 -7 -8
-15 -19 -15 -19 -15 1 -8 18 6 18 5 6 -10 -11 -14 -11 -17 0 -17 9 0 10 -3 3
-8 -6 -4 -11 -15 -11 -24 0 -14 3 -15 14 -6 11 8 12 7 7 -6 -3 -9 -10 -16 -16
-16 -5 0 -3 -7 6 -15 10 -11 12 -23 7 -43 -6 -19 -4 -37 5 -53 8 -14 11 -37 7
-57 -5 -28 -3 -31 13 -25 18 7 18 6 2 -11 -21 -20 -23 -32 -6 -42 7 -5 8 -3 3
6 -5 9 -4 11 4 6 8 -5 9 -12 3 -19 -13 -16 -9 -70 5 -74 7 -3 9 -11 6 -20 -4
-9 -2 -14 3 -10 6 3 11 -4 11 -16 2 -17 0 -19 -7 -7 -8 13 -10 12 -10 -2 0 -9
8 -22 18 -28 13 -9 13 -10 1 -7 -19 6 -21 -20 -2 -27 7 -3 13 -11 13 -18 0 -9
-3 -9 -11 2 -9 12 -10 12 -5 -3 3 -10 6 -23 6 -28 0 -6 6 -7 13 -3 9 6 9 4 -1
-8 -11 -14 -10 -18 4 -26 11 -6 13 -12 6 -16 -8 -4 -8 -15 -2 -31 5 -14 7 -25
5 -25 -3 0 2 -11 11 -25 9 -14 13 -25 9 -25 -3 0 1 -8 11 -17 11 -11 13 -18 5
-21 -15 -5 -14 -18 5 -36 9 -9 11 -16 4 -16 -6 0 -9 -4 -5 -10 3 -5 13 -6 23
-3 15 6 15 5 -2 -12 -18 -18 -18 -19 5 -28 21 -7 22 -10 8 -20 -13 -10 -14
-15 -4 -24 7 -7 16 -9 20 -5 4 4 2 -3 -4 -15 -11 -21 -8 -27 11 -24 4 0 4 -7
1 -16 -5 -12 -3 -14 8 -8 11 7 12 6 2 -6 -9 -11 -8 -18 1 -31 7 -10 16 -15 19
-11 4 3 7 2 8 -3 0 -5 1 -30 2 -56 1 -26 6 -50 11 -55 5 -4 7 -1 3 9 -3 10 -2
20 4 23 5 4 9 3 8 -2 -1 -4 -1 -10 1 -13 8 -23 7 -59 -2 -54 -7 4 -8 2 -4 -4
4 -6 14 -8 24 -5 14 6 15 4 4 -9 -10 -12 -10 -17 1 -27 8 -6 16 -9 19 -6 5 5
8 -13 9 -48 0 -11 5 -17 13 -14 10 4 12 -1 8 -15 -3 -14 -1 -19 6 -14 8 5 10
1 5 -10 -4 -10 0 -22 12 -30 9 -7 15 -20 12 -28 -3 -8 2 -20 11 -28 15 -12 16
-11 4 4 -10 12 -10 18 -1 24 7 4 9 3 5 -4 -3 -6 -2 -13 4 -17 7 -4 6 -14 -2
-28 -11 -21 -10 -21 7 -7 10 8 16 10 12 3 -4 -6 -1 -14 5 -16 10 -4 10 -6 1
-6 -8 -1 -5 -13 8 -36 12 -19 18 -35 15 -35 -4 0 -1 -6 6 -14 7 -8 18 -11 23
-8 6 3 3 -3 -5 -13 -14 -17 -13 -18 3 -12 11 4 16 3 12 -3 -3 -6 0 -10 7 -10
9 0 9 -3 -2 -10 -13 -9 -13 -10 0 -11 8 -1 20 -1 25 1 6 1 4 -4 -3 -11 -10
-11 -8 -16 10 -27 19 -11 20 -12 3 -8 -19 6 -20 6 -1 -9 10 -8 23 -12 29 -8 6
3 7 1 3 -6 -4 -6 -13 -8 -19 -5 -7 3 1 -5 17 -20 16 -14 26 -29 23 -32 -12
-12 14 -46 30 -40 14 6 14 4 2 -11 -9 -11 -10 -14 -1 -9 7 4 12 1 12 -8 0 -9
4 -16 8 -16 4 0 8 -9 9 -21 1 -12 10 -27 19 -33 11 -8 14 -18 9 -26 -6 -10 -4
-12 9 -7 13 5 17 3 13 -7 -4 -11 -1 -13 10 -9 11 4 14 2 9 -5 -4 -7 -2 -12 3
-12 6 0 11 -10 11 -22 0 -19 2 -20 10 -8 8 12 10 11 10 -7 0 -13 5 -23 11 -23
6 0 9 -6 6 -14 -7 -17 27 -51 41 -42 6 3 8 -2 5 -13 -3 -10 0 -22 6 -25 6 -4
9 -1 8 6 -2 7 -2 10 0 5 3 -4 9 -4 15 -1 6 4 6 -2 -1 -14 -10 -18 -9 -20 11
-17 16 3 19 2 10 -7 -8 -8 -2 -19 21 -42 18 -17 24 -24 12 -16 -16 12 -15 9 4
-12 13 -15 28 -25 32 -22 5 3 6 -1 3 -9 -3 -8 0 -18 7 -23 8 -5 10 -3 4 7 -7
12 5 4 45 -30 3 -2 -3 -1 -12 2 -10 4 -18 2 -18 -3 0 -6 7 -10 15 -10 8 0 15
-6 15 -12 0 -9 4 -8 10 2 8 12 10 10 10 -8 0 -13 4 -20 10 -17 5 3 10 -1 10
-9 0 -19 11 -20 30 -4 12 11 12 10 1 -4 -10 -13 -10 -21 -1 -35 11 -17 11 -17
6 2 -5 18 -5 18 6 4 7 -9 20 -14 28 -11 9 2 7 -2 -5 -12 -16 -12 -17 -16 -5
-17 8 -1 18 -1 23 0 4 0 6 -5 5 -11 -2 -8 5 -12 15 -10 9 2 17 -1 16 -5 -3
-19 2 -33 12 -33 5 0 7 5 3 12 -4 7 -3 8 4 4 6 -4 8 -14 5 -23 -5 -13 -2 -15
11 -10 11 4 15 3 11 -4 -4 -5 7 -23 23 -39 17 -16 27 -31 24 -35 -4 -3 1 -3
11 1 12 4 17 1 17 -10 0 -9 5 -16 11 -16 5 0 7 5 4 10 -10 16 1 11 16 -7 10
-11 10 -14 2 -9 -7 4 -13 2 -13 -3 0 -11 15 -15 34 -12 5 1 3 -5 -4 -14 -11
-13 -10 -15 3 -10 8 4 18 1 22 -4 3 -6 11 -8 17 -5 6 4 8 2 5 -4 -12 -17 4
-42 27 -43 11 0 15 -3 9 -6 -10 -3 -10 -8 1 -19 17 -16 30 -19 21 -4 -10 16 1
11 16 -7 10 -11 10 -14 2 -9 -7 4 -13 3 -13 -2 0 -12 29 -24 41 -17 5 4 6 -1
3 -9 -3 -9 5 -21 23 -33 15 -9 30 -20 33 -24 3 -3 16 -12 29 -19 19 -10 22
-10 16 2 -5 7 1 4 12 -7 11 -11 18 -24 15 -29 -3 -5 5 -6 17 -3 13 3 20 3 17
0 -8 -8 23 -35 33 -28 5 3 13 0 17 -6 4 -8 3 -9 -4 -5 -7 4 -12 2 -12 -3 0
-15 27 -14 34 2 3 6 3 2 1 -10 -3 -12 0 -25 6 -29 8 -5 10 -2 5 7 -4 8 -1 6 7
-3 8 -10 20 -18 26 -18 7 0 9 -5 5 -12 -6 -10 -5 -10 8 -1 12 11 18 10 30 -5
8 -9 18 -25 21 -34 4 -11 14 -16 27 -13 11 2 18 0 15 -6 -4 -5 -1 -9 5 -9 6 0
8 -5 4 -12 -5 -8 -2 -8 10 1 9 8 16 10 14 5 -2 -5 -1 -9 2 -9 13 0 37 -31 32
-40 -3 -5 2 -4 12 4 9 8 16 10 15 5 -1 -5 -1 -15 0 -23 1 -11 4 -11 18 0 11
10 14 10 9 2 -4 -8 -2 -13 4 -13 6 0 8 -5 4 -12 -4 -7 -3 -8 5 -4 6 4 14 0 17
-8 3 -9 10 -16 16 -16 5 0 6 5 3 10 -3 5 -2 10 4 10 5 0 12 -9 16 -19 4 -13
13 -18 27 -16 11 3 18 2 15 -2 -4 -3 -2 -14 4 -25 6 -11 13 -17 16 -14 3 3 20
-5 37 -17 17 -12 37 -20 44 -19 9 2 11 -1 7 -8 -5 -9 -1 -10 15 -5 15 5 20 4
16 -4 -5 -7 1 -11 14 -11 14 0 19 -4 14 -12 -5 -8 0 -7 11 2 11 9 16 10 11 3
-4 -8 -1 -13 9 -13 10 0 14 -5 9 -13 -6 -9 -4 -9 7 1 7 6 18 12 24 12 5 0 3
-5 -5 -10 -13 -9 -13 -10 0 -11 8 -1 17 -1 20 -1 3 0 11 -6 18 -14 10 -10 10
-14 1 -14 -7 0 -10 -3 -7 -6 4 -3 16 0 29 6 19 11 21 10 16 -4 -4 -9 -3 -15 1
-15 4 1 22 -2 40 -6 24 -6 30 -10 20 -16 -9 -6 -7 -9 9 -9 12 0 24 -6 26 -12
3 -7 6 -4 7 7 1 18 2 18 11 -3 5 -14 16 -22 27 -20 9 1 27 -7 39 -19 19 -19
27 -21 49 -13 24 9 25 9 14 -5 -10 -13 -9 -15 8 -15 11 0 23 -6 25 -12 4 -10
6 -10 6 0 1 8 8 6 23 -8 25 -23 37 -19 17 7 -11 14 -9 13 12 -2 15 -11 25 -23
23 -26 -2 -4 3 -10 12 -13 8 -3 13 -2 10 2 -3 5 1 9 9 9 8 0 13 -5 12 -11 -1
-6 4 -10 11 -8 6 1 12 -2 12 -8 0 -5 7 -6 17 -3 10 4 14 2 10 -4 -4 -6 0 -14
9 -17 8 -3 12 -2 9 4 -3 6 1 7 9 4 9 -3 13 -11 10 -16 -4 -6 -1 -9 7 -6 8 3
20 -2 28 -10 10 -9 16 -11 19 -4 2 6 10 8 18 5 7 -3 11 -10 7 -16 -3 -5 -2 -7
3 -4 6 3 16 2 24 -3 8 -5 22 -4 32 1 15 8 20 5 28 -13 5 -13 9 -17 9 -10 1 7
8 5 21 -8 11 -11 26 -17 35 -14 8 4 15 1 15 -4 0 -6 9 -9 20 -7 13 2 20 -2 20
-11 0 -8 5 -14 11 -14 5 0 7 5 3 12 -4 6 3 4 16 -5 19 -13 27 -14 39 -4 11 9
13 9 8 0 -9 -14 21 -33 41 -26 6 3 12 -1 12 -9 0 -10 3 -9 10 2 8 13 10 13 10
1 0 -11 4 -9 14 5 14 19 15 19 13 -1 -2 -14 4 -19 23 -20 14 0 24 -5 23 -12
-2 -8 10 -10 38 -8 29 3 38 1 33 -8 -4 -7 -4 -9 1 -5 4 4 17 3 28 -3 15 -9 18
-8 11 3 -4 7 2 5 14 -6 12 -10 28 -16 35 -13 8 3 20 0 26 -6 8 -8 11 -8 11 1
0 6 7 9 15 6 8 -4 12 -11 8 -17 -4 -6 0 -8 9 -4 9 3 21 0 28 -6 10 -9 11 -9 5
3 -7 11 -4 11 11 -2 14 -13 23 -14 38 -6 12 7 17 7 12 0 -3 -5 1 -13 10 -16 8
-3 12 -2 9 4 -8 12 5 13 24 1 9 -6 22 -6 33 0 14 7 20 6 25 -6 5 -13 7 -14 14
-3 7 11 9 11 9 -1 0 -8 7 -11 20 -8 10 3 24 -1 30 -8 12 -14 35 -14 47 0 4 4
2 5 -6 0 -10 -5 -12 -4 -7 4 10 16 29 2 21 -16 -4 -13 -3 -14 10 -3 11 9 15 9
15 1 0 -7 4 -9 10 -6 6 3 10 2 10 -3 0 -6 7 -13 16 -16 14 -6 15 -4 4 9 -11
13 -11 16 1 13 8 -2 16 -6 19 -9 5 -7 35 -12 58 -10 7 0 10 6 6 13 -4 7 -3 8
5 4 9 -6 9 -11 1 -21 -8 -9 -4 -12 17 -9 15 1 35 -2 45 -7 13 -7 18 -6 19 3 0
7 4 4 9 -7 5 -11 9 -15 9 -8 1 7 8 10 18 6 11 -4 14 -3 9 5 -5 8 -2 10 8 6 9
-3 13 -11 9 -18 -3 -6 3 -2 15 8 12 11 25 16 29 13 3 -4 1 -7 -6 -7 -7 0 -9
-5 -6 -10 5 -8 11 -8 20 0 9 8 14 6 20 -7 6 -17 7 -17 21 1 8 11 14 15 14 9 0
-6 7 -14 16 -17 8 -3 12 -2 9 4 -3 6 -2 10 4 10 5 0 12 -4 15 -9 3 -5 15 -11
26 -14 17 -4 19 -3 9 9 -16 19 -4 18 15 -2 14 -13 97 -23 131 -14 18 4 36 0
32 -7 -3 -5 14 -8 38 -8 29 0 40 3 35 10 -6 7 -2 11 10 11 10 0 17 -3 14 -7
-2 -4 3 -10 12 -13 12 -5 15 -2 10 11 -6 14 -4 14 15 -3 22 -19 22 -19 15 1
-6 16 -5 18 5 8 15 -15 33 -17 24 -3 -3 6 1 7 9 4 9 -3 13 -11 9 -18 -4 -6 1
-5 10 3 14 11 17 11 17 0 0 -8 6 -5 15 7 8 10 15 15 14 9 -3 -22 2 -29 11 -15
8 13 10 13 10 1 0 -11 4 -10 16 5 8 10 13 13 9 7 -10 -21 4 -34 24 -23 12 6
22 5 29 -2 8 -8 12 -9 12 -1 0 6 7 14 16 17 14 5 15 4 4 -9 -11 -14 -10 -14
13 -6 18 7 27 7 31 -2 2 -7 5 -4 5 6 1 16 3 17 16 3 11 -11 23 -12 44 -6 16 4
33 5 37 2 4 -4 4 2 1 13 -6 18 -6 18 6 3 12 -15 14 -15 23 0 9 13 12 13 19 2
6 -9 4 -11 -5 -5 -9 5 -11 4 -6 -4 6 -9 11 -9 22 0 11 9 14 8 14 -2 0 -8 6 -5
14 7 8 10 18 16 22 11 4 -4 2 -7 -5 -7 -7 0 -9 -5 -6 -11 5 -7 14 -4 26 7 15
13 18 14 14 3 -4 -10 1 -15 14 -15 16 0 18 3 8 15 -9 11 -4 11 17 -3 16 -10
25 -13 22 -7 -4 6 -3 11 3 11 5 0 13 -5 16 -11 5 -7 14 -4 26 7 11 9 22 14 26
11 3 -4 1 -7 -6 -7 -7 0 -9 -5 -6 -10 5 -8 11 -8 19 -1 9 7 17 7 26 -2 10 -10
11 -9 5 2 -6 11 -1 13 23 9 17 -2 29 -1 26 3 -2 4 12 5 32 2 28 -5 35 -3 29 6
-4 7 5 5 21 -5 19 -13 25 -14 19 -5 -6 11 -4 13 10 7 15 -5 16 -4 6 8 -10 12
-7 13 23 6 23 -5 34 -4 30 2 -4 6 2 7 16 3 17 -6 21 -4 15 6 -5 8 1 6 11 -3
19 -16 22 -16 40 -2 10 8 13 12 5 8 -10 -5 -12 -3 -6 6 6 10 10 10 20 -3 10
-14 12 -14 23 1 10 16 11 16 6 -1 -5 -13 -2 -16 10 -11 9 3 14 9 11 13 -2 4 2
8 9 8 8 0 12 -7 9 -16 -4 -13 -2 -13 10 1 15 19 33 25 23 9 -4 -5 2 -8 11 -6
10 2 22 4 27 4 4 1 5 8 2 17 -5 14 -4 15 9 4 8 -7 15 -9 15 -5 0 4 7 2 15 -5
13 -11 14 -10 10 3 -4 8 -1 18 6 23 7 4 10 3 6 -3 -4 -6 0 -13 8 -17 10 -3 15
1 15 12 0 15 2 15 10 2 8 -12 11 -13 19 -1 7 11 10 11 15 0 5 -11 7 -11 12 -1
5 10 9 10 22 0 13 -11 15 -10 9 4 -4 12 -2 15 7 12 8 -3 17 -1 20 4 3 6 16 8
28 4 13 -3 19 -1 15 5 -5 7 0 9 13 6 11 -3 18 -9 15 -13 -3 -5 8 -3 24 3 17 6
27 16 24 21 -4 6 -2 8 2 3 5 -4 18 1 29 10 12 10 15 11 9 3 -17 -19 -17 -35 0
-21 8 6 23 9 35 6 12 -2 25 1 28 7 4 7 2 8 -4 4 -7 -4 -12 -2 -12 3 0 13 17
14 24 2 10 -15 37 -6 58 20 18 22 19 23 8 1 -7 -15 -7 -22 0 -22 5 0 10 5 10
11 0 6 7 8 16 5 11 -4 15 -2 11 7 -3 8 1 14 9 14 7 0 11 -4 9 -8 -7 -10 22 -5
32 6 4 4 2 5 -4 1 -7 -4 -13 -3 -13 3 0 5 9 9 20 8 14 -1 19 -6 15 -17 -3 -10
-1 -9 9 3 8 10 17 18 20 18 20 -3 26 0 21 9 -3 5 -1 10 4 10 6 0 11 -5 11 -11
0 -5 5 -7 10 -4 6 4 7 12 3 18 -3 7 3 4 14 -6 19 -17 33 -14 33 7 0 6 -5 4
-10 -4 -6 -9 -10 -10 -10 -3 0 16 17 26 25 14 3 -7 15 -7 29 -1 13 5 28 6 32
2 5 -4 2 2 -6 12 -14 18 -14 19 9 7 19 -11 25 -11 32 0 6 10 9 10 9 2 0 -19
30 -3 31 16 0 11 2 12 6 3 4 -10 8 -10 19 -1 7 6 20 9 28 6 7 -3 24 1 35 10
12 8 25 13 28 9 3 -3 14 5 24 17 14 16 18 18 13 4 -5 -13 -2 -16 10 -11 9 3
16 14 16 23 0 14 2 14 10 1 6 -9 10 -11 10 -3 0 8 7 10 18 6 14 -6 15 -4 5 8
-10 12 -8 15 7 15 10 0 16 -4 14 -8 -3 -4 -1 -8 4 -8 5 0 14 10 20 22 9 19 11
20 11 5 1 -10 6 -15 11 -12 6 4 7 12 3 18 -4 7 2 5 12 -3 11 -9 16 -10 11 -3
-5 9 1 13 18 13 20 0 24 4 19 18 -5 14 -3 13 10 -3 14 -17 16 -18 17 -3 0 11
6 16 20 13 11 -2 18 0 15 6 -5 8 25 14 49 10 5 -1 6 5 3 13 -4 9 -2 18 4 21 5
4 9 3 8 -2 -4 -23 3 -25 17 -5 13 18 19 21 30 11 11 -9 14 -9 14 0 0 7 8 11
18 9 11 -2 17 3 16 15 -2 14 1 15 12 6 10 -8 14 -9 14 0 0 7 10 10 25 7 14 -3
23 -1 20 5 -4 5 -1 9 5 9 6 0 8 6 4 13 -5 9 -4 9 6 0 10 -9 18 -5 36 15 13 15
24 21 24 15 0 -7 -4 -13 -10 -13 -5 0 -10 -5 -10 -12 0 -6 14 1 32 18 17 16
28 23 24 17 -10 -18 4 -16 35 5 15 10 24 23 21 32 -2 9 2 7 12 -5 l15 -20 1
20 c0 17 2 17 10 5 8 -13 10 -12 10 3 0 10 4 15 10 12 15 -9 50 14 50 33 0 14
2 15 10 2 8 -13 10 -12 15 1 4 10 16 15 31 13 25 -2 25 -2 7 19 -17 21 -17 21
0 7 15 -11 20 -11 27 -1 6 11 9 11 13 0 4 -10 6 -9 6 3 1 10 8 15 19 13 21 -3
54 24 46 37 -4 6 4 5 16 -2 18 -10 21 -9 15 1 -6 9 -3 11 8 6 12 -4 15 -1 12
14 -4 17 -2 19 10 9 12 -10 15 -9 15 5 0 14 3 15 15 5 13 -11 14 -10 9 5 -5
12 -4 16 3 12 6 -4 13 2 16 13 4 14 10 18 23 13 13 -5 16 -3 11 10 -3 9 -3 16
1 16 4 -1 10 0 15 1 12 4 27 7 38 9 6 0 8 9 4 18 -5 14 -4 15 6 6 10 -10 16
-7 31 15 10 15 18 22 18 16 0 -5 -6 -16 -12 -23 -10 -10 -8 -10 10 0 12 8 20
20 17 28 -5 11 -3 12 10 1 13 -11 14 -10 8 6 -6 17 -5 18 12 4 17 -14 18 -13
12 2 -4 13 -2 15 10 11 11 -4 14 -2 9 5 -5 8 -2 10 8 6 11 -4 16 0 16 11 0 11
5 15 15 11 8 -3 15 -1 15 5 0 6 6 7 13 3 7 -5 7 -2 -2 10 -12 15 -12 17 0 14
8 -2 13 3 11 11 -3 12 0 12 12 1 16 -12 21 -5 17 22 0 4 6 5 14 2 8 -3 22 1
31 10 8 9 20 13 26 10 6 -4 9 -3 6 2 -3 5 0 15 8 22 8 7 14 10 14 6 0 -4 12 6
27 22 15 16 33 28 41 26 8 -2 11 1 8 7 -4 5 3 12 13 16 14 4 18 11 14 23 -6
15 -5 16 12 2 15 -12 17 -12 10 -1 -6 11 -4 13 8 8 15 -6 21 2 19 24 -1 3 9 4
22 2 13 -3 27 0 30 6 5 7 1 9 -8 5 -30 -12 -16 6 17 21 24 11 26 14 7 9 -21
-4 -22 -3 -7 6 10 6 14 16 10 23 -4 7 0 6 10 -2 12 -9 17 -10 17 -2 0 7 4 10
9 7 5 -3 8 2 7 11 0 10 4 18 9 19 21 2 45 17 45 27 0 5 -9 2 -19 -7 -14 -13
-21 -14 -27 -5 -4 7 -3 10 4 5 6 -3 18 4 26 16 9 12 16 19 16 15 0 -4 9 -3 20
3 11 6 18 15 15 20 -3 5 3 7 14 5 14 -2 18 1 14 11 -3 7 2 17 11 20 9 3 13 11
9 18 -4 6 2 4 12 -4 10 -8 16 -10 12 -4 -4 7 0 14 8 18 8 3 12 12 9 21 -4 10
0 15 11 15 10 0 13 -5 9 -12 -4 -6 -3 -8 4 -4 6 3 9 15 7 25 -2 10 2 18 8 17
7 0 12 1 12 4 1 12 51 56 59 52 5 -3 6 0 3 5 -4 6 0 14 9 17 9 4 14 13 10 21
-3 8 -2 14 2 14 21 -3 32 2 26 13 -5 8 -2 9 11 4 16 -6 16 -4 4 11 -8 9 -9 14
-3 10 7 -4 14 0 18 8 3 8 11 15 17 15 8 0 7 -6 -2 -18 -13 -15 -12 -16 3 -4 9
7 15 22 13 32 -3 14 1 17 12 13 12 -5 14 -3 8 7 -6 10 -4 12 7 8 11 -5 14 0
12 18 -2 20 0 23 11 14 10 -8 15 -8 21 1 4 8 3 9 -4 5 -7 -4 -12 -3 -12 3 0 6
9 15 20 21 11 6 18 15 15 21 -4 5 -1 9 5 9 6 0 8 5 4 13 -5 7 -1 7 12 -3 10
-8 16 -10 12 -6 -4 5 4 22 18 39 14 16 23 36 20 43 -3 8 -2 13 2 13 20 -3 28
3 29 21 2 19 43 82 43 65 0 -5 -8 -17 -17 -27 -12 -14 -13 -17 -2 -13 8 3 22
18 31 35 15 27 15 28 0 24 -9 -3 -1 4 18 16 28 16 30 19 10 14 -24 -6 -24 -6
-5 9 11 8 24 13 30 9 5 -3 1 5 -10 19 -11 13 -13 18 -5 11 19 -16 30 -15 30 3
0 8 6 15 13 15 8 0 7 3 -3 10 -12 8 -12 10 3 16 9 3 17 12 17 20 0 7 8 18 18
24 12 8 13 13 5 16 -7 3 -13 11 -13 17 0 8 4 7 12 -1 18 -18 31 -15 24 5 -4
10 -4 14 0 10 4 -3 16 13 27 36 12 23 26 45 31 49 7 5 7 8 -1 8 -7 0 -13 5
-13 10 0 6 3 9 8 9 18 -3 32 2 32 12 0 5 -5 7 -12 3 -7 -4 -8 -3 -4 4 4 6 13
9 21 6 10 -4 13 2 10 21 -2 18 3 29 16 33 10 4 18 10 18 15 1 4 1 8 2 10 0 1
2 11 4 22 2 11 9 21 15 23 5 2 8 8 4 13 -3 5 0 9 7 9 8 0 8 4 -1 15 -11 13
-10 14 5 9 10 -4 16 -3 13 2 -7 10 16 35 26 28 3 -2 2 1 -3 7 -6 7 -2 18 10
30 11 11 17 24 14 28 -2 5 2 14 10 21 7 6 11 18 8 25 -2 8 8 26 23 40 15 14
21 23 13 20 -10 -4 -16 0 -16 9 0 8 6 12 14 9 9 -4 11 0 6 13 -5 13 -3 15 8 9
12 -7 12 -6 1 7 -10 13 -10 18 -1 24 8 5 9 3 4 -6 -5 -9 -4 -11 4 -6 9 6 9 11
0 22 -7 9 -8 14 -3 13 20 -4 26 2 15 15 -9 11 -8 14 6 12 13 -1 17 5 15 23 -2
14 0 21 7 17 6 -4 8 3 5 20 -3 14 -1 23 5 20 5 -3 7 3 4 14 -3 13 1 22 11 26
11 4 15 13 10 26 -4 14 -2 18 5 14 10 -7 15 8 14 42 -1 6 3 12 8 12 5 0 9 5 9
11 0 5 -6 7 -12 3 -7 -4 -4 2 6 14 12 14 14 22 7 22 -9 0 -8 5 3 15 8 9 12 23
9 32 -4 11 -3 14 5 9 8 -5 12 3 13 26 2 46 3 50 15 73 6 11 10 27 9 35 0 8 4
18 10 22 6 4 1 8 -10 8 -18 0 -18 1 3 16 24 16 20 39 -5 30 -8 -3 -11 -1 -8 4
3 6 13 10 22 10 13 0 13 3 3 15 -11 13 -10 14 4 9 11 -4 16 -1 16 11 0 10 -4
13 -12 9 -8 -5 -7 -1 2 10 8 10 13 31 12 47 -1 18 3 29 10 29 8 0 6 4 -4 10
-13 8 -14 14 -5 34 7 13 16 22 20 19 5 -3 4 5 -3 17 -7 12 -8 20 -2 16 5 -3
13 1 16 10 4 10 2 13 -7 8 -9 -6 -9 -5 0 7 10 12 10 18 0 28 -9 10 -8 11 6 5
13 -5 16 -2 11 10 -4 10 -1 16 7 16 11 0 11 2 2 8 -7 5 -15 22 -17 39 -2 25 0
30 13 25 13 -4 12 -1 -4 17 -14 16 -15 22 -5 19 9 -2 14 4 14 15 -1 9 5 17 15
18 12 0 12 2 -4 9 -11 5 -15 9 -9 9 10 1 10 61 0 88 -3 7 0 15 6 19 7 5 8 2 3
-7 -5 -8 -4 -10 0 -6 12 10 15 38 4 31 -8 -5 -14 19 -9 41 1 6 3 15 4 20 1 6
5 16 10 24 5 8 3 16 -5 22 -10 6 -11 9 -1 9 6 0 12 5 12 11 0 5 -6 7 -12 3
-10 -6 -10 -5 -1 7 6 8 10 24 9 34 -2 11 1 25 6 32 6 7 3 15 -9 22 -11 6 -13
11 -5 11 7 0 10 5 7 10 -4 6 -12 7 -18 3 -7 -4 -4 5 5 19 15 23 15 28 2 39
-13 10 -13 14 1 29 11 12 13 20 6 25 -6 3 -9 24 -8 46 2 28 -1 43 -12 50 -13
8 -12 9 6 6 20 -5 22 -3 11 16 -6 12 -18 27 -26 33 -13 10 -13 13 4 22 18 11
18 11 1 12 -17 0 -17 2 -3 22 14 20 14 24 -1 40 -10 12 -12 18 -4 18 7 0 9 5
4 13 -4 6 -9 21 -10 31 -2 11 -9 26 -16 35 -9 12 -9 13 1 7 6 -4 12 -2 12 3 0
6 -7 11 -17 11 -14 0 -14 3 3 22 10 12 14 19 9 15 -6 -3 -17 -2 -25 4 -10 6
-11 9 -2 9 6 0 12 5 12 11 0 5 -4 8 -9 5 -14 -9 -7 28 8 40 12 9 10 13 -8 26
-16 11 -19 17 -9 21 10 4 10 6 -1 6 -11 1 -11 4 0 18 10 11 10 14 2 9 -9 -5
-13 0 -13 16 0 18 -2 20 -10 8 -7 -12 -9 -10 -7 7 0 12 5 19 9 17 17 -10 7 16
-9 26 -17 11 -17 11 0 6 21 -6 22 1 3 19 -7 8 -17 11 -22 7 -5 -4 -2 1 5 11 7
9 11 18 7 18 -3 1 -10 2 -15 3 -5 0 -13 5 -18 10 -5 5 -3 6 5 2 20 -12 19 53
-2 66 -7 5 -6 8 4 8 11 0 12 2 3 8 -7 4 -13 24 -15 45 -1 21 -7 37 -14 37 -7
0 -16 4 -19 10 -4 6 1 7 12 3 16 -6 16 -5 5 10 -8 9 -10 22 -6 29 6 9 3 9 -9
-1 -15 -12 -17 -12 -11 4 6 14 4 16 -7 10 -11 -7 -12 -6 -3 6 11 15 11 20 -1
56 -4 13 -11 20 -16 17 -9 -5 -13 8 -10 38 1 9 -3 19 -8 22 -6 4 -7 14 -4 23
4 10 2 14 -5 9 -6 -3 -14 -1 -18 5 -4 7 -3 9 4 5 6 -3 13 -2 17 4 3 5 2 10 -4
10 -6 0 -13 11 -17 25 -3 14 -11 25 -17 25 -6 0 -7 3 -4 7 4 3 1 13 -6 21 -9
13 -9 14 0 8 10 -5 11 -1 4 16 -5 13 -14 22 -19 21 -5 -1 -8 7 -5 17 3 11 0
20 -6 20 -6 0 -11 9 -11 19 0 11 -9 26 -21 34 -15 11 -17 16 -7 20 7 3 3 6
-10 6 -13 1 -20 5 -17 11 4 6 11 8 16 4 5 -3 -2 11 -16 31 -13 21 -22 41 -19
46 3 5 -1 9 -8 9 -7 0 -19 9 -26 21 -8 12 -9 18 -3 14 14 -8 14 -2 -1 30 -6
14 -15 25 -20 25 -4 0 -8 7 -8 16 0 9 -5 12 -12 8 -8 -5 -9 -2 -5 9 3 10 2 17
-4 17 -6 0 -8 4 -5 9 9 13 -21 34 -36 25 -10 -6 -9 -3 1 9 12 15 11 17 -5 18
-18 0 -18 1 1 9 11 5 14 9 7 9 -14 1 -42 25 -42 36 0 3 6 3 13 -1 8 -5 8 -2
-2 9 -16 20 -25 23 -15 5 4 -8 3 -10 -2 -5 -12 12 -12 30 1 40 6 6 3 7 -7 4
-9 -3 -24 3 -35 16 -18 21 -18 21 1 7 18 -14 18 -14 6 7 -8 12 -18 19 -24 16
-5 -4 -7 3 -4 15 6 21 -2 27 -26 23 -5 -1 -4 5 4 13 10 13 10 16 -5 16 -9 0
-15 6 -13 12 7 19 -28 52 -44 42 -10 -6 -10 -4 1 9 11 15 11 17 -2 17 -8 0
-21 8 -28 17 -10 11 -10 14 -1 9 6 -4 12 -2 12 3 0 6 -7 11 -15 11 -8 0 -14 3
-14 8 4 21 -3 33 -17 30 -10 -2 -19 4 -21 12 -4 13 -3 13 6 0 9 -13 11 -12 11
3 0 11 -9 21 -20 24 -13 3 -20 14 -20 29 0 13 -4 24 -10 24 -5 0 -7 -8 -3 -17
5 -15 3 -14 -10 2 -11 15 -12 22 -4 27 12 8 -5 13 -27 9 -5 -1 -4 5 4 13 10
13 10 16 -4 16 -9 0 -16 7 -16 16 0 9 -5 12 -12 8 -6 -4 -8 -3 -5 3 9 14 -25
51 -42 45 -9 -3 -11 0 -7 7 4 7 2 18 -4 27 -10 11 -16 12 -28 2 -13 -11 -14
-10 -8 10 6 16 3 22 -8 22 -15 0 -21 12 -17 34 1 5 -5 3 -14 -4 -13 -11 -14
-10 -9 5 5 12 4 16 -4 11 -6 -3 -13 3 -17 14 -3 11 -13 20 -22 20 -9 0 -13 6
-10 14 4 9 -2 12 -17 11 -14 -2 -23 3 -23 11 0 11 3 11 16 1 14 -11 14 -10 2
6 -7 9 -20 17 -27 17 -8 0 -14 5 -14 11 0 5 -4 7 -10 4 -5 -3 -10 -2 -10 4 0
5 6 12 13 14 6 3 2 6 -10 6 -13 1 -23 7 -23 15 0 8 -9 18 -20 21 -11 4 -18 11
-15 16 4 5 -1 9 -9 9 -8 0 -18 9 -21 20 -3 11 -15 25 -26 31 -11 6 -17 15 -12
22 4 7 -2 5 -12 -3 -11 -9 -16 -10 -11 -2 4 6 2 12 -3 12 -6 0 -11 6 -11 13 0
8 -8 21 -18 30 -15 13 -21 14 -32 4 -9 -8 -11 -8 -6 0 3 6 -3 18 -14 26 -11 7
-17 18 -12 23 4 4 -2 2 -12 -6 -13 -10 -17 -10 -12 -2 4 7 2 12 -4 12 -6 0 -8
5 -5 10 6 9 -8 14 -28 11 -5 -1 -6 3 -3 8 9 14 -34 51 -58 51 -17 0 -18 2 -6
10 12 8 11 10 -7 10 -12 0 -24 6 -26 13 -4 9 -8 9 -15 -1 -7 -11 -10 -10 -16
3 -9 25 -7 32 5 15 9 -13 10 -13 6 0 -2 8 -9 16 -15 16 -7 1 -19 2 -27 3 -8 0
-15 8 -15 17 0 9 -5 12 -12 8 -8 -5 -9 -2 -4 11 6 16 4 16 -11 4 -10 -7 -15
-10 -11 -5 12 14 -21 39 -43 33 -16 -4 -18 -3 -8 9 11 13 2 19 -23 15 -5 0 -8
5 -8 13 0 7 -7 19 -15 26 -13 11 -14 10 -8 -6 6 -16 5 -17 -9 -4 -9 8 -14 18
-11 23 4 7 -20 11 -47 7 -8 -1 -12 1 -8 6 9 9 -10 34 -26 34 -6 0 -4 -5 4 -10
11 -7 12 -10 2 -10 -8 0 -16 9 -19 20 -3 11 -10 20 -15 20 -5 0 -19 10 -30 23
-11 12 -17 16 -13 10 9 -18 -3 -16 -21 2 -9 8 -13 19 -10 24 3 4 -5 8 -17 7
-12 -1 -28 7 -35 19 -13 20 -13 20 -8 0 6 -19 5 -19 -8 -2 -7 9 -21 17 -31 17
-11 0 -15 5 -12 14 4 10 1 13 -9 9 -9 -3 -21 3 -31 16 -12 18 -18 20 -29 10
-12 -10 -15 -10 -12 2 2 9 -6 14 -24 14 -19 -1 -24 3 -18 11 14 16 -1 26 -18
11 -13 -9 -14 -9 -8 1 5 8 1 12 -13 12 -11 0 -22 9 -26 21 -5 16 -13 20 -31
16 -16 -3 -24 0 -24 9 0 7 -18 18 -39 24 -22 6 -41 15 -43 20 -2 5 -14 11 -28
14 -14 2 -24 9 -23 15 2 6 -4 8 -14 4 -11 -4 -14 -3 -9 5 4 8 2 10 -7 6 -8 -3
-18 0 -22 5 -3 6 -11 9 -16 6 -5 -4 -9 -1 -9 5 0 6 -5 8 -12 3 -19 -11 -39
-13 -32 -2 3 5 10 7 15 4 15 -10 10 2 -8 16 -11 10 -14 10 -9 2 4 -7 3 -13 -2
-13 -6 0 -13 8 -16 17 -6 15 -8 15 -16 3 -8 -12 -10 -12 -10 4 0 15 -3 16 -14
7 -10 -8 -16 -9 -21 -1 -3 6 -11 8 -16 5 -5 -4 -6 2 -2 12 6 16 5 16 -10 4
-15 -12 -17 -12 -11 3 5 12 2 15 -10 10 -9 -3 -16 -1 -16 5 0 6 -9 11 -20 11
-11 0 -20 5 -20 11 0 5 -4 8 -9 4 -5 -3 -13 -1 -16 5 -4 6 -15 8 -25 5 -10 -3
-22 0 -26 6 -5 8 -3 9 6 4 9 -5 11 -4 6 4 -6 9 -11 9 -22 0 -11 -9 -14 -8 -14
7 0 16 -2 17 -10 4 -8 -13 -10 -13 -10 2 0 12 -6 15 -22 11 -19 -4 -20 -3 -8
6 8 6 10 11 4 11 -5 0 -16 -6 -23 -12 -9 -8 -11 -8 -8 -2 9 16 -25 28 -35 12
-5 -9 -8 -8 -8 6 0 16 -2 17 -17 5 -10 -7 -15 -9 -10 -4 8 9 -42 47 -54 39 -4
-2 -11 0 -14 6 -5 8 -12 7 -23 -2 -12 -10 -14 -10 -8 0 6 11 -5 17 -26 13 -5
0 -8 4 -8 10 0 8 -4 8 -14 0 -11 -9 -16 -9 -22 0 -5 8 -3 9 6 4 9 -5 11 -4 6
4 -4 6 -12 9 -17 6 -5 -4 -16 0 -24 9 -8 8 -24 13 -35 11 -11 -2 -20 1 -20 7
0 7 -6 6 -15 -2 -12 -10 -15 -10 -15 0 0 9 -4 9 -17 -1 -14 -12 -16 -12 -8 0
6 11 4 13 -8 8 -9 -3 -19 -1 -23 5 -5 7 -2 8 6 3 9 -5 11 -4 6 4 -6 9 -11 9
-22 0 -12 -10 -20 -7 -41 12 -14 13 -23 18 -19 12 4 -7 2 -13 -3 -13 -6 0 -11
5 -11 10 0 6 -5 10 -11 10 -5 0 -8 -4 -4 -9 3 -5 1 -13 -5 -16 -6 -4 -10 -3
-9 2 4 22 -2 32 -16 27 -8 -4 -15 -1 -15 5 0 6 -5 11 -11 11 -5 0 -8 -4 -5 -8
3 -5 -1 -9 -9 -9 -8 0 -12 4 -10 8 10 16 -25 17 -35 1 -11 -16 -11 -16 -6 1 5
15 2 17 -15 12 -15 -5 -19 -4 -15 4 7 11 -5 15 -31 12 -7 -1 -13 3 -13 9 0 5
-7 10 -16 10 -9 0 -12 -5 -8 -12 6 -10 5 -10 -7 -1 -12 10 -18 10 -29 0 -10
-9 -11 -9 -6 1 5 8 0 12 -13 12 -12 0 -21 -5 -21 -11 0 -5 -12 3 -26 18 -14
15 -23 23 -20 16 4 -6 2 -14 -3 -17 -5 -3 -12 1 -15 10 -3 8 -11 12 -17 8 -6
-3 -15 0 -20 7 -7 11 -9 11 -9 1 0 -8 -5 -10 -12 -5 -15 9 -19 10 -55 12 -23
1 -25 3 -13 12 12 9 12 10 -3 5 -10 -3 -21 -6 -23 -6 -3 0 -2 -6 2 -12 4 -7
-3 -4 -16 7 -13 11 -20 14 -16 8 5 -9 2 -11 -8 -7 -9 3 -13 10 -10 15 3 5 -6
5 -20 -1 -17 -6 -27 -6 -32 2 -5 7 -3 8 6 3 9 -5 11 -4 6 4 -6 9 -11 9 -22 0
-7 -6 -20 -9 -29 -6 -8 4 -17 2 -20 -3 -4 -6 -12 -10 -18 -9 -9 0 -9 2 1 6 6
2 12 8 12 13 0 10 -20 8 -39 -4 -10 -6 -12 -5 -7 2 6 11 0 14 -20 11 -4 0 -11
5 -15 13 -5 7 -9 8 -9 3 0 -6 -9 -11 -20 -12 -13 -1 -18 2 -13 10 4 7 0 6 -10
-2 -12 -9 -17 -10 -17 -2 0 9 -5 9 -21 0 -12 -6 -19 -7 -15 -1 3 5 -3 12 -14
15 -11 3 -18 2 -15 -3 3 -4 -2 -11 -11 -14 -8 -3 -12 -2 -9 4 3 6 -3 10 -15
10 -14 0 -19 -4 -14 -12 4 -7 -2 -4 -14 6 -12 11 -22 14 -22 8 0 -7 -4 -12
-10 -12 -5 0 -7 7 -4 15 7 18 -7 20 -25 3 -11 -10 -13 -10 -7 0 4 6 4 12 -1
13 -42 4 -61 4 -58 -2 3 -3 -9 -6 -25 -5 -19 1 -30 6 -30 15 0 11 -4 10 -13
-4 -11 -14 -16 -15 -22 -5 -6 9 -4 11 5 5 9 -5 11 -4 6 4 -6 8 -12 9 -20 2 -9
-7 -17 -7 -26 2 -10 10 -12 8 -6 -8 6 -15 4 -17 -5 -8 -6 6 -18 9 -27 6 -11
-5 -13 -3 -7 8 7 11 6 12 -6 2 -12 -10 -18 -10 -29 0 -8 8 -11 8 -7 1 4 -7 0
-14 -8 -17 -10 -4 -12 -1 -8 11 6 14 4 15 -8 5 -23 -19 -25 -19 -44 -3 -11 9
-16 10 -11 3 4 -7 3 -13 -3 -13 -5 0 -13 5 -16 10 -8 13 -25 13 -25 -1 0 -5 5
-7 12 -3 7 5 8 3 3 -5 -5 -9 -11 -9 -17 -3 -6 6 -17 8 -26 5 -11 -5 -13 -3 -7
8 8 12 6 12 -8 0 -9 -7 -17 -10 -17 -6 0 4 -7 2 -15 -5 -9 -7 -18 -10 -22 -6
-3 3 -1 6 5 6 7 0 12 4 12 8 0 4 -9 8 -19 8 -11 0 -18 -3 -15 -7 2 -4 -3 -9
-11 -12 -10 -4 -12 -1 -8 10 5 12 3 14 -8 7 -8 -5 -25 -9 -39 -9 -14 0 -31 -4
-37 -8 -8 -5 -11 -3 -8 5 3 8 -3 13 -19 13 -20 0 -22 -3 -13 -14 10 -12 9 -12
-9 -3 -16 8 -24 8 -33 -1 -10 -9 -11 -9 -6 3 4 11 -2 15 -19 15 -16 0 -21 -4
-15 -11 5 -7 3 -11 -6 -11 -8 0 -15 7 -15 16 0 10 -3 12 -8 6 -4 -6 -16 -11
-27 -11 -12 0 -19 -6 -17 -14 3 -11 0 -11 -12 0 -18 14 -22 25 -6 15 6 -3 10
-1 10 4 0 14 -17 14 -26 0z m1436 -103 c0 -2 -8 -10 -17 -17 -16 -13 -17 -12
-4 4 13 16 21 21 21 13z m654 -154 c3 -5 -1 -9 -9 -9 -8 0 -12 4 -9 9 3 4 7 8
9 8 2 0 6 -4 9 -8z m-3864 -142 c0 -5 -5 -10 -11 -10 -5 0 -7 5 -4 10 3 6 8
10 11 10 2 0 4 -4 4 -10z m4954 -336 c3 -8 2 -12 -4 -9 -6 3 -10 10 -10 16 0
14 7 11 14 -7z m-5974 -204 c0 -5 -2 -10 -4 -10 -3 0 -8 5 -11 10 -3 6 -1 10
4 10 6 0 11 -4 11 -10z m6630 -235 c19 -22 8 -25 -12 -3 -10 10 -14 18 -9 18
5 0 14 -7 21 -15z m155 -125 c3 -5 1 -10 -4 -10 -6 0 -11 5 -11 10 0 6 2 10 4
10 3 0 8 -4 11 -10z m-7422 -135 c-3 -9 -8 -14 -10 -11 -3 3 -2 9 2 15 9 16
15 13 8 -4z m-436 -480 c0 -8 -4 -12 -9 -9 -5 3 -6 10 -3 15 9 13 12 11 12 -6z
m8718 -434 c3 -5 2 -12 -3 -15 -5 -3 -9 1 -9 9 0 17 3 19 12 6z m165 -309 c0
-5 -7 -9 -15 -9 -8 0 -12 4 -9 9 3 4 9 8 15 8 5 0 9 -4 9 -8z m-9605 -882 c3
-6 -1 -7 -9 -4 -18 7 -21 14 -7 14 6 0 13 -4 16 -10z m-25 -94 c0 -3 -4 -8
-10 -11 -5 -3 -10 -1 -10 4 0 6 5 11 10 11 6 0 10 -2 10 -4z m9945 -116 c-3
-5 -12 -10 -18 -10 -7 0 -6 4 3 10 19 12 23 12 15 0z m-224 -1707 c13 -16 12
-17 -3 -4 -10 7 -18 15 -18 17 0 8 8 3 21 -13z m-106 -243 c3 -5 1 -10 -4 -10
-6 0 -11 5 -11 10 0 6 2 10 4 10 3 0 8 -4 11 -10z m-8888 -707 c0 -9 -4 -10
-14 -2 -7 6 -13 12 -13 14 0 1 6 2 13 2 8 0 14 -6 14 -14z m8423 -57 c0 -2 -8
-10 -17 -17 -16 -13 -17 -12 -4 4 13 16 21 21 21 13z m-7976 -414 c3 -5 -1 -9
-9 -9 -8 0 -12 4 -9 9 3 4 7 8 9 8 2 0 6 -4 9 -8z m266 -264 c0 -4 -4 -8 -9
-8 -6 0 -12 4 -15 8 -3 5 1 9 9 9 8 0 15 -4 15 -9z m601 -431 c-10 -9 -11 -8
-5 6 3 10 9 15 12 12 3 -3 0 -11 -7 -18z m79 -33 c0 -8 -19 -13 -24 -6 -3 5 1
9 9 9 8 0 15 -2 15 -3z m5653 -25 c-8 -8 -13 -7 -18 2 -5 8 -4 10 3 5 7 -4 12
-2 12 5 0 7 3 9 7 6 4 -4 2 -12 -4 -18z m-173 -83 c0 -3 -4 -8 -10 -11 -5 -3
-10 -1 -10 4 0 6 5 11 10 11 6 0 10 -2 10 -4z m-3155 -606 c3 -6 -1 -7 -9 -4
-18 7 -21 14 -7 14 6 0 13 -4 16 -10z"/>
<path d="M6575 9370 c3 -5 8 -10 11 -10 2 0 4 5 4 10 0 6 -5 10 -11 10 -5 0
-7 -4 -4 -10z"/>
<path d="M6950 9280 c0 -5 5 -10 11 -10 5 0 7 5 4 10 -3 6 -8 10 -11 10 -2 0
-4 -4 -4 -10z"/>
<path d="M7675 9020 c3 -5 8 -10 11 -10 2 0 4 5 4 10 0 6 -5 10 -11 10 -5 0
-7 -4 -4 -10z"/>
<path d="M1300 7780 c-9 -6 -10 -10 -3 -10 6 0 15 5 18 10 8 12 4 12 -15 0z"/>
<path d="M605 6659 c-4 -6 -5 -12 -2 -15 2 -3 7 2 10 11 7 17 1 20 -8 4z"/>
<path d="M503 6375 c0 -8 4 -12 9 -9 5 3 6 10 3 15 -9 13 -12 11 -12 -6z"/>
<path d="M366 4917 c3 -10 9 -15 12 -12 3 3 0 11 -7 18 -10 9 -11 8 -5 -6z"/>
<path d="M650 3871 c0 -6 4 -13 10 -16 6 -3 7 1 4 9 -7 18 -14 21 -14 7z"/>
<path d="M1676 2477 c3 -10 9 -15 12 -12 3 3 0 11 -7 18 -10 9 -11 8 -5 -6z"/>
<path d="M2110 2146 c0 -2 8 -10 18 -17 15 -13 16 -12 3 4 -13 16 -21 21 -21
13z"/>
<path d="M8376 1982 c-3 -5 1 -9 9 -9 8 0 12 4 9 9 -3 4 -7 8 -9 8 -2 0 -6 -4
-9 -8z"/>
</g>
</svg>
